<mxfile host="app.diagrams.net" modified="2024-07-14T12:42:08.084Z" agent="Mozilla/5.0 (Windows NT 10.0; Win64; x64) AppleWebKit/537.36 (KHTML, like Gecko) Chrome/126.0.0.0 Safari/537.36" etag="ECCIdBgOimbv8Q8R3d4S" version="24.6.5" type="google">
  <diagram name="Page-1" id="7FfsymGc3JrPrbDOlZnw">
    <mxGraphModel grid="1" page="1" gridSize="10" guides="1" tooltips="1" connect="1" arrows="1" fold="1" pageScale="1" pageWidth="850" pageHeight="1100" math="0" shadow="0">
      <root>
        <mxCell id="0" />
        <mxCell id="1" parent="0" />
        <mxCell id="3jYSvLuj2k_nALa14J8C-44" value="" style="rounded=0;whiteSpace=wrap;html=1;" vertex="1" parent="1">
          <mxGeometry x="30" y="10" width="720" height="560" as="geometry" />
        </mxCell>
        <mxCell id="3jYSvLuj2k_nALa14J8C-20" style="edgeStyle=orthogonalEdgeStyle;rounded=0;orthogonalLoop=1;jettySize=auto;html=1;exitX=1;exitY=0.5;exitDx=0;exitDy=0;entryX=0;entryY=0.5;entryDx=0;entryDy=0;" edge="1" parent="1" source="3jYSvLuj2k_nALa14J8C-1" target="3jYSvLuj2k_nALa14J8C-5">
          <mxGeometry relative="1" as="geometry" />
        </mxCell>
        <mxCell id="3jYSvLuj2k_nALa14J8C-1" value="Start" style="ellipse;whiteSpace=wrap;html=1;" vertex="1" parent="1">
          <mxGeometry x="40" y="40" width="80" height="40" as="geometry" />
        </mxCell>
        <mxCell id="3jYSvLuj2k_nALa14J8C-23" style="edgeStyle=orthogonalEdgeStyle;rounded=0;orthogonalLoop=1;jettySize=auto;html=1;exitX=1;exitY=0.5;exitDx=0;exitDy=0;entryX=0;entryY=0.5;entryDx=0;entryDy=0;" edge="1" parent="1" source="3jYSvLuj2k_nALa14J8C-3" target="3jYSvLuj2k_nALa14J8C-6">
          <mxGeometry relative="1" as="geometry" />
        </mxCell>
        <mxCell id="3jYSvLuj2k_nALa14J8C-3" value="Convert to Pandas Dataframe" style="rounded=1;whiteSpace=wrap;html=1;" vertex="1" parent="1">
          <mxGeometry x="320" y="120" width="80" height="40" as="geometry" />
        </mxCell>
        <mxCell id="3jYSvLuj2k_nALa14J8C-4" value="Handle Exceptions" style="rounded=1;whiteSpace=wrap;html=1;" vertex="1" parent="1">
          <mxGeometry x="320" y="40" width="80" height="40" as="geometry" />
        </mxCell>
        <mxCell id="3jYSvLuj2k_nALa14J8C-21" style="edgeStyle=orthogonalEdgeStyle;rounded=0;orthogonalLoop=1;jettySize=auto;html=1;exitX=1;exitY=0.5;exitDx=0;exitDy=0;entryX=0;entryY=0.5;entryDx=0;entryDy=0;" edge="1" parent="1" source="3jYSvLuj2k_nALa14J8C-5" target="3jYSvLuj2k_nALa14J8C-4">
          <mxGeometry relative="1" as="geometry" />
        </mxCell>
        <mxCell id="3jYSvLuj2k_nALa14J8C-22" style="edgeStyle=orthogonalEdgeStyle;rounded=0;orthogonalLoop=1;jettySize=auto;html=1;exitX=1;exitY=0.5;exitDx=0;exitDy=0;entryX=0;entryY=0.5;entryDx=0;entryDy=0;" edge="1" parent="1" source="3jYSvLuj2k_nALa14J8C-5" target="3jYSvLuj2k_nALa14J8C-3">
          <mxGeometry relative="1" as="geometry" />
        </mxCell>
        <mxCell id="3jYSvLuj2k_nALa14J8C-5" value="Collect Data&amp;nbsp;&lt;div&gt;from Kaggle&lt;/div&gt;" style="rhombus;whiteSpace=wrap;html=1;" vertex="1" parent="1">
          <mxGeometry x="160" y="20" width="120" height="80" as="geometry" />
        </mxCell>
        <mxCell id="3jYSvLuj2k_nALa14J8C-24" style="edgeStyle=orthogonalEdgeStyle;rounded=0;orthogonalLoop=1;jettySize=auto;html=1;exitX=0.5;exitY=1;exitDx=0;exitDy=0;entryX=0.5;entryY=0;entryDx=0;entryDy=0;" edge="1" parent="1" source="3jYSvLuj2k_nALa14J8C-6" target="3jYSvLuj2k_nALa14J8C-7">
          <mxGeometry relative="1" as="geometry" />
        </mxCell>
        <mxCell id="3jYSvLuj2k_nALa14J8C-6" value="Data&amp;nbsp;&lt;div&gt;Visualization&lt;/div&gt;" style="rounded=1;whiteSpace=wrap;html=1;" vertex="1" parent="1">
          <mxGeometry x="440" y="120" width="80" height="40" as="geometry" />
        </mxCell>
        <mxCell id="3jYSvLuj2k_nALa14J8C-25" style="edgeStyle=orthogonalEdgeStyle;rounded=0;orthogonalLoop=1;jettySize=auto;html=1;exitX=0;exitY=0.5;exitDx=0;exitDy=0;entryX=1;entryY=0.5;entryDx=0;entryDy=0;" edge="1" parent="1" source="3jYSvLuj2k_nALa14J8C-7" target="3jYSvLuj2k_nALa14J8C-8">
          <mxGeometry relative="1" as="geometry" />
        </mxCell>
        <mxCell id="3jYSvLuj2k_nALa14J8C-7" value="Apply&amp;nbsp;&lt;div&gt;PCA&lt;/div&gt;" style="rounded=1;whiteSpace=wrap;html=1;" vertex="1" parent="1">
          <mxGeometry x="440" y="240" width="80" height="40" as="geometry" />
        </mxCell>
        <mxCell id="3jYSvLuj2k_nALa14J8C-26" style="edgeStyle=orthogonalEdgeStyle;rounded=0;orthogonalLoop=1;jettySize=auto;html=1;exitX=0.5;exitY=1;exitDx=0;exitDy=0;entryX=0.5;entryY=0;entryDx=0;entryDy=0;" edge="1" parent="1" source="3jYSvLuj2k_nALa14J8C-8" target="3jYSvLuj2k_nALa14J8C-9">
          <mxGeometry relative="1" as="geometry" />
        </mxCell>
        <mxCell id="3jYSvLuj2k_nALa14J8C-27" style="edgeStyle=orthogonalEdgeStyle;rounded=0;orthogonalLoop=1;jettySize=auto;html=1;exitX=0.5;exitY=1;exitDx=0;exitDy=0;entryX=0.5;entryY=0;entryDx=0;entryDy=0;" edge="1" parent="1" source="3jYSvLuj2k_nALa14J8C-8" target="3jYSvLuj2k_nALa14J8C-13">
          <mxGeometry relative="1" as="geometry" />
        </mxCell>
        <mxCell id="3jYSvLuj2k_nALa14J8C-28" style="edgeStyle=orthogonalEdgeStyle;rounded=0;orthogonalLoop=1;jettySize=auto;html=1;exitX=0.5;exitY=1;exitDx=0;exitDy=0;entryX=0.5;entryY=0;entryDx=0;entryDy=0;" edge="1" parent="1" source="3jYSvLuj2k_nALa14J8C-8" target="3jYSvLuj2k_nALa14J8C-12">
          <mxGeometry relative="1" as="geometry" />
        </mxCell>
        <mxCell id="3jYSvLuj2k_nALa14J8C-29" style="edgeStyle=orthogonalEdgeStyle;rounded=0;orthogonalLoop=1;jettySize=auto;html=1;exitX=0.5;exitY=1;exitDx=0;exitDy=0;entryX=0.5;entryY=0;entryDx=0;entryDy=0;" edge="1" parent="1" source="3jYSvLuj2k_nALa14J8C-8" target="3jYSvLuj2k_nALa14J8C-11">
          <mxGeometry relative="1" as="geometry" />
        </mxCell>
        <mxCell id="3jYSvLuj2k_nALa14J8C-30" style="edgeStyle=orthogonalEdgeStyle;rounded=0;orthogonalLoop=1;jettySize=auto;html=1;exitX=0.5;exitY=1;exitDx=0;exitDy=0;entryX=0.5;entryY=0;entryDx=0;entryDy=0;" edge="1" parent="1" source="3jYSvLuj2k_nALa14J8C-8" target="3jYSvLuj2k_nALa14J8C-14">
          <mxGeometry relative="1" as="geometry" />
        </mxCell>
        <mxCell id="3jYSvLuj2k_nALa14J8C-31" style="edgeStyle=orthogonalEdgeStyle;rounded=0;orthogonalLoop=1;jettySize=auto;html=1;exitX=0.5;exitY=1;exitDx=0;exitDy=0;entryX=0.5;entryY=0;entryDx=0;entryDy=0;" edge="1" parent="1" source="3jYSvLuj2k_nALa14J8C-8" target="3jYSvLuj2k_nALa14J8C-10">
          <mxGeometry relative="1" as="geometry" />
        </mxCell>
        <mxCell id="3jYSvLuj2k_nALa14J8C-8" value="Model&lt;div&gt;Training&lt;/div&gt;" style="rhombus;whiteSpace=wrap;html=1;" vertex="1" parent="1">
          <mxGeometry x="280" y="220" width="120" height="80" as="geometry" />
        </mxCell>
        <mxCell id="3jYSvLuj2k_nALa14J8C-32" style="edgeStyle=orthogonalEdgeStyle;rounded=0;orthogonalLoop=1;jettySize=auto;html=1;exitX=0.5;exitY=1;exitDx=0;exitDy=0;entryX=0.5;entryY=0;entryDx=0;entryDy=0;" edge="1" parent="1" source="3jYSvLuj2k_nALa14J8C-9" target="3jYSvLuj2k_nALa14J8C-16">
          <mxGeometry relative="1" as="geometry" />
        </mxCell>
        <mxCell id="3jYSvLuj2k_nALa14J8C-9" value="Logistic Regression" style="rounded=1;whiteSpace=wrap;html=1;" vertex="1" parent="1">
          <mxGeometry x="60" y="360" width="80" height="40" as="geometry" />
        </mxCell>
        <mxCell id="3jYSvLuj2k_nALa14J8C-37" style="edgeStyle=orthogonalEdgeStyle;rounded=0;orthogonalLoop=1;jettySize=auto;html=1;exitX=0.5;exitY=1;exitDx=0;exitDy=0;" edge="1" parent="1" source="3jYSvLuj2k_nALa14J8C-10">
          <mxGeometry relative="1" as="geometry">
            <mxPoint x="380" y="440" as="targetPoint" />
          </mxGeometry>
        </mxCell>
        <mxCell id="3jYSvLuj2k_nALa14J8C-10" value="ANN&lt;span style=&quot;color: rgba(0, 0, 0, 0); font-family: monospace; font-size: 0px; text-align: start; text-wrap: nowrap;&quot;&gt;%3CmxGraphModel%3E%3Croot%3E%3CmxCell%20id%3D%220%22%2F%3E%3CmxCell%20id%3D%221%22%20parent%3D%220%22%2F%3E%3CmxCell%20id%3D%222%22%20value%3D%22Convert%20to%20Pandas%20Dataframe%22%20style%3D%22rounded%3D1%3BwhiteSpace%3Dwrap%3Bhtml%3D1%3B%22%20vertex%3D%221%22%20parent%3D%221%22%3E%3CmxGeometry%20x%3D%22440%22%20y%3D%22120%22%20width%3D%2280%22%20height%3D%2240%22%20as%3D%22geometry%22%2F%3E%3C%2FmxCell%3E%3C%2Froot%3E%3C%2FmxGraphModel%3E&lt;/span&gt;" style="rounded=1;whiteSpace=wrap;html=1;" vertex="1" parent="1">
          <mxGeometry x="660" y="360" width="80" height="40" as="geometry" />
        </mxCell>
        <mxCell id="3jYSvLuj2k_nALa14J8C-35" style="edgeStyle=orthogonalEdgeStyle;rounded=0;orthogonalLoop=1;jettySize=auto;html=1;exitX=0.5;exitY=1;exitDx=0;exitDy=0;" edge="1" parent="1" source="3jYSvLuj2k_nALa14J8C-11">
          <mxGeometry relative="1" as="geometry">
            <mxPoint x="380" y="440" as="targetPoint" />
          </mxGeometry>
        </mxCell>
        <mxCell id="3jYSvLuj2k_nALa14J8C-11" value="SVM" style="rounded=1;whiteSpace=wrap;html=1;" vertex="1" parent="1">
          <mxGeometry x="420" y="360" width="80" height="40" as="geometry" />
        </mxCell>
        <mxCell id="3jYSvLuj2k_nALa14J8C-34" style="edgeStyle=orthogonalEdgeStyle;rounded=0;orthogonalLoop=1;jettySize=auto;html=1;exitX=0.5;exitY=1;exitDx=0;exitDy=0;entryX=0.5;entryY=0;entryDx=0;entryDy=0;" edge="1" parent="1" source="3jYSvLuj2k_nALa14J8C-12" target="3jYSvLuj2k_nALa14J8C-16">
          <mxGeometry relative="1" as="geometry" />
        </mxCell>
        <mxCell id="3jYSvLuj2k_nALa14J8C-12" value="Naive&amp;nbsp;&lt;div&gt;Bayes&lt;/div&gt;" style="rounded=1;whiteSpace=wrap;html=1;" vertex="1" parent="1">
          <mxGeometry x="300" y="360" width="80" height="40" as="geometry" />
        </mxCell>
        <mxCell id="3jYSvLuj2k_nALa14J8C-33" style="edgeStyle=orthogonalEdgeStyle;rounded=0;orthogonalLoop=1;jettySize=auto;html=1;exitX=0.5;exitY=1;exitDx=0;exitDy=0;entryX=0.5;entryY=0;entryDx=0;entryDy=0;" edge="1" parent="1" source="3jYSvLuj2k_nALa14J8C-13" target="3jYSvLuj2k_nALa14J8C-16">
          <mxGeometry relative="1" as="geometry" />
        </mxCell>
        <mxCell id="3jYSvLuj2k_nALa14J8C-13" value="KNN" style="rounded=1;whiteSpace=wrap;html=1;" vertex="1" parent="1">
          <mxGeometry x="180" y="360" width="80" height="40" as="geometry" />
        </mxCell>
        <mxCell id="3jYSvLuj2k_nALa14J8C-36" style="edgeStyle=orthogonalEdgeStyle;rounded=0;orthogonalLoop=1;jettySize=auto;html=1;exitX=0.5;exitY=1;exitDx=0;exitDy=0;entryX=0.5;entryY=0;entryDx=0;entryDy=0;" edge="1" parent="1" source="3jYSvLuj2k_nALa14J8C-14" target="3jYSvLuj2k_nALa14J8C-16">
          <mxGeometry relative="1" as="geometry" />
        </mxCell>
        <mxCell id="3jYSvLuj2k_nALa14J8C-14" value="Decision&lt;div&gt;Tree&lt;/div&gt;" style="rounded=1;whiteSpace=wrap;html=1;" vertex="1" parent="1">
          <mxGeometry x="540" y="360" width="80" height="40" as="geometry" />
        </mxCell>
        <mxCell id="3jYSvLuj2k_nALa14J8C-38" style="edgeStyle=orthogonalEdgeStyle;rounded=0;orthogonalLoop=1;jettySize=auto;html=1;exitX=0.5;exitY=1;exitDx=0;exitDy=0;entryX=0.5;entryY=0;entryDx=0;entryDy=0;" edge="1" parent="1" source="3jYSvLuj2k_nALa14J8C-16" target="3jYSvLuj2k_nALa14J8C-17">
          <mxGeometry relative="1" as="geometry" />
        </mxCell>
        <mxCell id="3jYSvLuj2k_nALa14J8C-16" value="Ensemble&lt;div&gt;Model&lt;/div&gt;" style="shape=parallelogram;perimeter=parallelogramPerimeter;whiteSpace=wrap;html=1;fixedSize=1;" vertex="1" parent="1">
          <mxGeometry x="320" y="440" width="120" height="40" as="geometry" />
        </mxCell>
        <mxCell id="3jYSvLuj2k_nALa14J8C-39" style="edgeStyle=orthogonalEdgeStyle;rounded=0;orthogonalLoop=1;jettySize=auto;html=1;exitX=1;exitY=0.5;exitDx=0;exitDy=0;entryX=0;entryY=0.5;entryDx=0;entryDy=0;" edge="1" parent="1" source="3jYSvLuj2k_nALa14J8C-17" target="3jYSvLuj2k_nALa14J8C-18">
          <mxGeometry relative="1" as="geometry" />
        </mxCell>
        <mxCell id="3jYSvLuj2k_nALa14J8C-17" value="Evaluation&lt;span style=&quot;color: rgba(0, 0, 0, 0); font-family: monospace; font-size: 0px; text-align: start; text-wrap: nowrap;&quot;&gt;%3CmxGraphModel%3E%3Croot%3E%3CmxCell%20id%3D%220%22%2F%3E%3CmxCell%20id%3D%221%22%20parent%3D%220%22%2F%3E%3CmxCell%20id%3D%222%22%20value%3D%22SVM%22%20style%3D%22rounded%3D1%3BwhiteSpace%3Dwrap%3Bhtml%3D1%3B%22%20vertex%3D%221%22%20parent%3D%221%22%3E%3CmxGeometry%20x%3D%22400%22%20y%3D%22360%22%20width%3D%2280%22%20height%3D%2240%22%20as%3D%22geometry%22%2F%3E%3C%2FmxCell%3E%3C%2Froot%3E%3C%2FmxGraphModel%3E&lt;/span&gt;" style="rounded=1;whiteSpace=wrap;html=1;" vertex="1" parent="1">
          <mxGeometry x="340" y="520" width="80" height="40" as="geometry" />
        </mxCell>
        <mxCell id="3jYSvLuj2k_nALa14J8C-40" style="edgeStyle=orthogonalEdgeStyle;rounded=0;orthogonalLoop=1;jettySize=auto;html=1;exitX=1;exitY=0.5;exitDx=0;exitDy=0;entryX=0;entryY=0.5;entryDx=0;entryDy=0;" edge="1" parent="1" source="3jYSvLuj2k_nALa14J8C-18" target="3jYSvLuj2k_nALa14J8C-19">
          <mxGeometry relative="1" as="geometry" />
        </mxCell>
        <mxCell id="3jYSvLuj2k_nALa14J8C-18" value="Deployment" style="rounded=1;whiteSpace=wrap;html=1;" vertex="1" parent="1">
          <mxGeometry x="460" y="520" width="80" height="40" as="geometry" />
        </mxCell>
        <mxCell id="3jYSvLuj2k_nALa14J8C-19" value="End" style="ellipse;whiteSpace=wrap;html=1;" vertex="1" parent="1">
          <mxGeometry x="580" y="520" width="80" height="40" as="geometry" />
        </mxCell>
        <mxCell id="3jYSvLuj2k_nALa14J8C-42" value="Failure" style="text;html=1;align=center;verticalAlign=middle;whiteSpace=wrap;rounded=0;" vertex="1" parent="1">
          <mxGeometry x="260" y="30" width="60" height="30" as="geometry" />
        </mxCell>
        <mxCell id="3jYSvLuj2k_nALa14J8C-43" value="Success" style="text;html=1;align=center;verticalAlign=middle;whiteSpace=wrap;rounded=0;" vertex="1" parent="1">
          <mxGeometry x="260" y="130" width="60" height="30" as="geometry" />
        </mxCell>
      </root>
    </mxGraphModel>
  </diagram>
</mxfile>
